<svg xmlns="http://www.w3.org/2000/svg" width="429.553" height="33.961"><g data-name="Raggruppa 7" fill="#251100">
  <path data-name="Tracciato 48" d="M47.656 23.78a3.212 3.212 0 01-2.518-1.022 3.9 3.9 0 01-.895-2.681V8.636h5.792V5.447h-5.792V0h-4.1v5.447h-2.771v3.189h2.773v11.316a7.162 7.162 0 002.009 5.334 6.722 6.722 0 004.861 1.972 7.622 7.622 0 005.058-1.981L50.455 22.5a4.041 4.041 0 01-2.799 1.28z"/>
  <path data-name="Tracciato 49" d="M66.586 23.573a7.475 7.475 0 01-7.572-7.529 6.665 6.665 0 012.221-5.164 7.547 7.547 0 015.207-1.995 8.927 8.927 0 015.717 2.371l2.4-2.951a11.209 11.209 0 00-8.034-3.187 11.8 11.8 0 00-8.24 3.1 10.413 10.413 0 00-3.368 8.017 10.5 10.5 0 003.227 7.976 10.9 10.9 0 007.719 3.051 12.405 12.405 0 008.9-3.8l-2.371-2.582a8.226 8.226 0 01-5.806 2.693z"/>
  <path data-name="Tracciato 50" d="M91.888 5.113A8.287 8.287 0 0087.7 6.24a7.108 7.108 0 00-2.894 3.073l-.506 1.039V.001h-4.1v26.925h4.1V15.277a6.21 6.21 0 011.869-4.856 6.357 6.357 0 014.358-1.66c3.529 0 5.317 2.136 5.317 6.35v11.815h4.1V13.705a8.652 8.652 0 00-2.222-6.392 7.967 7.967 0 00-5.834-2.2z"/>
  <path data-name="Tracciato 51" d="M123.822 7.764a11.087 11.087 0 00-7.458-2.646 10.91 10.91 0 00-7.62 2.991 10.492 10.492 0 00-3.224 8.058 10.653 10.653 0 003.165 8.082 10.815 10.815 0 007.7 3.009 12.14 12.14 0 008.9-3.424l-2.276-2.483a8.837 8.837 0 01-11.087.951 5.3 5.3 0 01-2.3-4.068l-.02-.286h17.274V15.03a9.128 9.128 0 00-3.054-7.266zm-1.047 7.079H109.62v-.269a5.291 5.291 0 012.132-4.413 7.624 7.624 0 014.735-1.607 6.645 6.645 0 014.458 1.554 5.592 5.592 0 011.831 4.466z"/>
  <path data-name="Tracciato 52" d="M144.186 5.118a8.08 8.08 0 00-7.089 4.207l-.5.913V5.449h-4.1v21.478h4.1V15.278a6.207 6.207 0 011.869-4.856 6.356 6.356 0 014.358-1.66c3.528 0 5.316 2.136 5.316 6.35v11.815h4.1V13.706c0-2.781-.746-4.931-2.216-6.389a7.965 7.965 0 00-5.838-2.199z"/>
  <path data-name="Tracciato 53" d="M250.199 5.118a8.08 8.08 0 00-7.089 4.207l-.5.912V5.449h-4.096v21.478h4.1V15.278a6.21 6.21 0 011.869-4.856 6.356 6.356 0 014.358-1.66c3.528 0 5.316 2.136 5.316 6.35v11.815h4.1V13.706c0-2.781-.746-4.931-2.216-6.389a7.965 7.965 0 00-5.842-2.199z"/>
  <path data-name="Tracciato 54" d="M280.963 9.247l-.481-.634a8.287 8.287 0 00-6.883-3.495 9.1 9.1 0 00-6.983 2.976 10.614 10.614 0 00-2.743 7.432 10.614 10.614 0 002.743 7.432 9.124 9.124 0 007 2.976 7.981 7.981 0 004.185-1.121 7.662 7.662 0 002.861-3l.5-.949v2.066c0 2.551-.678 4.442-2.015 5.621a7.891 7.891 0 01-5.39 1.763 10.914 10.914 0 01-6.443-2.321l-1.911 3.064a14.1 14.1 0 008.624 2.9 11.319 11.319 0 007.955-2.839c2.044-1.883 3.079-4.761 3.079-8.555V5.449h-4.1zm-1.83 11.013a6.245 6.245 0 01-4.789 1.988 5.906 5.906 0 01-4.714-2.058 7.264 7.264 0 01-1.74-4.85 7.505 7.505 0 011.737-4.908 5.807 5.807 0 014.7-2.125 6.2 6.2 0 014.792 2.053 7.189 7.189 0 011.848 4.98 7 7 0 01-1.834 4.92z"/>
  <path data-name="Tracciato 55" d="M312.533 0h-9.159v26.926h8.846c5.194 0 9.1-1.231 11.6-3.657s3.768-5.769 3.768-9.944-1.305-7.468-3.881-9.8S317.366 0 312.533 0zm8.169 20.656c-1.808 1.623-4.44 2.445-7.819 2.445h-5.414V3.746h4.9c7.346 0 11.072 3.262 11.072 9.7.008 3.154-.915 5.58-2.739 7.21z"/><path data-name="Tracciato 56" d="M356.621 5.118a8.08 8.08 0 00-7.089 4.207l-.5.912V5.449h-4.1v21.478h4.1V15.278a6.21 6.21 0 011.866-4.86 6.356 6.356 0 014.358-1.66c3.528 0 5.316 2.136 5.316 6.35v11.819h4.1V13.706c0-2.781-.746-4.931-2.216-6.389a7.965 7.965 0 00-5.835-2.199z"/><path data-name="Tracciato 57" d="M22.222 0h-5.167L4.1 13.806V0H0v26.926h4.1V19.39l4.3-4.634 9.226 12.17h4.842L11.446 11.734z"/><path data-name="Rettangolo 21" d="M27.731 5.448h4.098v21.479h-4.098z"/><path data-name="Tracciato 58" d="M173.654 0h-4.1v26.926h16.632v-3.865h-12.532z"/><path data-name="Rettangolo 22" d="M192.166 5.448h4.098v21.479h-4.098z"/><path data-name="Tracciato 59" d="M211.719 22.532l-6.885-17.083h-4.222l8.64 21.483h4.934l8.64-21.479h-4.224z"/><path data-name="Rettangolo 23" d="M227.172 5.448h4.098v21.479h-4.098z"/><path data-name="Rettangolo 24" d="M333.596 5.448h4.098v21.479h-4.098z"/><path data-name="Rettangolo 25" d="M371.662 5.448h4.098v21.479h-4.098z"/><path data-name="Tracciato 60" d="M394.69 5.118a8.08 8.08 0 00-7.089 4.207l-.5.913V5.449h-4.1v21.478h4.1V15.278a6.2 6.2 0 011.869-4.856 6.356 6.356 0 014.358-1.66c3.528 0 5.316 2.136 5.316 6.35v11.815h4.1V13.706c0-2.781-.746-4.931-2.216-6.389a7.965 7.965 0 00-5.838-2.199z"/><path data-name="Tracciato 61" d="M425.454 5.448v3.8l-.481-.634a8.286 8.286 0 00-6.884-3.496 9.1 9.1 0 00-6.981 2.976 10.611 10.611 0 00-2.743 7.431 10.616 10.616 0 002.743 7.434 9.122 9.122 0 007 2.975 7.982 7.982 0 004.186-1.121 7.657 7.657 0 002.86-3l.505-.949v2.065c0 2.551-.678 4.442-2.015 5.622a7.9 7.9 0 01-5.391 1.762 10.924 10.924 0 01-6.443-2.32l-1.91 3.063a14.09 14.09 0 008.623 2.9 11.313 11.313 0 007.949-2.847c2.042-1.882 3.079-4.761 3.079-8.555V5.448zm-1.83 14.811a6.247 6.247 0 01-4.789 1.989 5.9 5.9 0 01-4.714-2.059 7.259 7.259 0 01-1.74-4.85 7.507 7.507 0 011.737-4.908 5.808 5.808 0 014.7-2.125 6.2 6.2 0 014.793 2.053 7.19 7.19 0 011.848 4.98 7 7 0 01-1.835 4.92z"/>
  </g>
  </svg>