<?xml version="1.0" encoding="UTF-8" standalone="no"?>
<svg
   width="72"
   height="21"
   version="1.1"
   id="svg6"
   sodipodi:docname="Dining.svg"
   inkscape:version="1.3 (0e150ed6c4, 2023-07-21)"
   xmlns:inkscape="http://www.inkscape.org/namespaces/inkscape"
   xmlns:sodipodi="http://sodipodi.sourceforge.net/DTD/sodipodi-0.dtd"
   xmlns="http://www.w3.org/2000/svg"
   xmlns:svg="http://www.w3.org/2000/svg">
  <defs
     id="defs6" />
  <sodipodi:namedview
     id="namedview6"
     pagecolor="#ffffff"
     bordercolor="#000000"
     borderopacity="0.25"
     inkscape:showpageshadow="2"
     inkscape:pageopacity="0.0"
     inkscape:pagecheckerboard="0"
     inkscape:deskcolor="#d1d1d1"
     inkscape:zoom="4.5014485"
     inkscape:cx="214.48651"
     inkscape:cy="16.772379"
     inkscape:window-width="3440"
     inkscape:window-height="1369"
     inkscape:window-x="-8"
     inkscape:window-y="1432"
     inkscape:window-maximized="1"
     inkscape:current-layer="svg6" />
  <g
     data-name="Dining"
     fill="#ffffff"
     id="g6"
     transform="matrix(0.57062698,0,0,0.61829472,-173.1108,0.44430138)"
     style="display:inline">
    <path
       data-name="Tracciato 55"
       d="m 312.533,0 h -9.159 v 26.926 h 8.846 c 5.194,0 9.1,-1.231 11.6,-3.657 2.5,-2.426 3.768,-5.769 3.768,-9.944 0,-4.175 -1.305,-7.468 -3.881,-9.8 C 321.131,1.193 317.366,0 312.533,0 Z m 8.169,20.656 c -1.808,1.623 -4.44,2.445 -7.819,2.445 h -5.414 V 3.746 h 4.9 c 7.346,0 11.072,3.262 11.072,9.7 0.008,3.154 -0.915,5.58 -2.739,7.21 z"
       id="path1" />
    <path
       data-name="Rettangolo 24"
       d="m 333.596,5.448 h 4.098 v 21.479 h -4.098 z"
       id="path2" />
    <path
       data-name="Tracciato 56"
       d="m 356.621,5.118 a 8.08,8.08 0 0 0 -7.089,4.207 l -0.5,0.912 V 5.449 h -4.1 v 21.478 h 4.1 V 15.278 a 6.21,6.21 0 0 1 1.866,-4.86 6.356,6.356 0 0 1 4.358,-1.66 c 3.528,0 5.316,2.136 5.316,6.35 v 11.819 h 4.1 V 13.706 c 0,-2.781 -0.746,-4.931 -2.216,-6.389 a 7.965,7.965 0 0 0 -5.835,-2.199 z"
       id="path3" />
    <path
       data-name="Rettangolo 25"
       d="m 371.662,5.448 h 4.098 v 21.479 h -4.098 z"
       id="path4" />
    <path
       data-name="Tracciato 60"
       d="m 394.69,5.118 a 8.08,8.08 0 0 0 -7.089,4.207 l -0.5,0.913 V 5.449 h -4.1 v 21.478 h 4.1 V 15.278 a 6.2,6.2 0 0 1 1.869,-4.856 6.356,6.356 0 0 1 4.358,-1.66 c 3.528,0 5.316,2.136 5.316,6.35 v 11.815 h 4.1 V 13.706 c 0,-2.781 -0.746,-4.931 -2.216,-6.389 A 7.965,7.965 0 0 0 394.69,5.118 Z"
       id="path5" />
    <path
       data-name="Tracciato 61"
       d="m 425.454,5.448 v 3.8 l -0.481,-0.634 a 8.286,8.286 0 0 0 -6.884,-3.496 9.1,9.1 0 0 0 -6.981,2.976 10.611,10.611 0 0 0 -2.743,7.431 10.616,10.616 0 0 0 2.743,7.434 9.122,9.122 0 0 0 7,2.975 7.982,7.982 0 0 0 4.186,-1.121 7.657,7.657 0 0 0 2.86,-3 l 0.505,-0.949 v 2.065 c 0,2.551 -0.678,4.442 -2.015,5.622 a 7.9,7.9 0 0 1 -5.391,1.762 10.924,10.924 0 0 1 -6.443,-2.32 l -1.91,3.063 a 14.09,14.09 0 0 0 8.623,2.9 11.313,11.313 0 0 0 7.949,-2.847 c 2.042,-1.882 3.079,-4.761 3.079,-8.555 V 5.448 Z m -1.83,14.811 a 6.247,6.247 0 0 1 -4.789,1.989 5.9,5.9 0 0 1 -4.714,-2.059 7.259,7.259 0 0 1 -1.74,-4.85 7.507,7.507 0 0 1 1.737,-4.908 5.808,5.808 0 0 1 4.7,-2.125 6.2,6.2 0 0 1 4.793,2.053 7.19,7.19 0 0 1 1.848,4.98 7,7 0 0 1 -1.835,4.92 z"
       id="path6" />
  </g>
</svg>
