<?xml version="1.0" encoding="UTF-8" standalone="no"?>
<svg
   width="86"
   height="16"
   version="1.1"
   id="svg8"
   sodipodi:docname="Kitchen.svg"
   inkscape:version="1.3 (0e150ed6c4, 2023-07-21)"
   xmlns:inkscape="http://www.inkscape.org/namespaces/inkscape"
   xmlns:sodipodi="http://sodipodi.sourceforge.net/DTD/sodipodi-0.dtd"
   xmlns="http://www.w3.org/2000/svg"
   xmlns:svg="http://www.w3.org/2000/svg">
  <defs
     id="defs8" />
  <sodipodi:namedview
     id="namedview8"
     pagecolor="#ffffff"
     bordercolor="#000000"
     borderopacity="0.25"
     inkscape:showpageshadow="2"
     inkscape:pageopacity="0.0"
     inkscape:pagecheckerboard="0"
     inkscape:deskcolor="#d1d1d1"
     inkscape:zoom="6.7882063"
     inkscape:cx="84.632077"
     inkscape:cy="23.643948"
     inkscape:window-width="3440"
     inkscape:window-height="1369"
     inkscape:window-x="-8"
     inkscape:window-y="1432"
     inkscape:window-maximized="1"
     inkscape:current-layer="svg8" />
  <g
     data-name="Kitchen"
     fill="#ffffff"
     id="g8"
     transform="scale(0.56489753,0.58681096)">
    <path
       data-name="Tracciato 57"
       d="M 22.222,0 H 17.055 L 4.1,13.806 V 0 H 0 V 26.926 H 4.1 V 19.39 l 4.3,-4.634 9.226,12.17 h 4.842 L 11.446,11.734 Z"
       id="path1" />
    <path
       data-name="Rettangolo 21"
       d="m 27.731,5.448 h 4.098 v 21.479 h -4.098 z"
       id="path2" />
    <path
       data-name="Tracciato 48"
       d="M 47.656,23.78 A 3.212,3.212 0 0 1 45.138,22.758 3.9,3.9 0 0 1 44.243,20.077 V 8.636 h 5.792 V 5.447 H 44.243 V 0 h -4.1 v 5.447 h -2.771 v 3.189 h 2.773 v 11.316 a 7.162,7.162 0 0 0 2.009,5.334 6.722,6.722 0 0 0 4.861,1.972 7.622,7.622 0 0 0 5.058,-1.981 L 50.455,22.5 a 4.041,4.041 0 0 1 -2.799,1.28 z"
       id="path3" />
    <path
       data-name="Tracciato 49"
       d="m 66.586,23.573 a 7.475,7.475 0 0 1 -7.572,-7.529 6.665,6.665 0 0 1 2.221,-5.164 7.547,7.547 0 0 1 5.207,-1.995 8.927,8.927 0 0 1 5.717,2.371 l 2.4,-2.951 a 11.209,11.209 0 0 0 -8.034,-3.187 11.8,11.8 0 0 0 -8.24,3.1 10.413,10.413 0 0 0 -3.368,8.017 10.5,10.5 0 0 0 3.227,7.976 10.9,10.9 0 0 0 7.719,3.051 12.405,12.405 0 0 0 8.9,-3.8 L 72.392,20.88 a 8.226,8.226 0 0 1 -5.806,2.693 z"
       id="path4" />
    <path
       data-name="Tracciato 50"
       d="M 91.888,5.113 A 8.287,8.287 0 0 0 87.7,6.24 7.108,7.108 0 0 0 84.806,9.313 L 84.3,10.352 V 0.001 h -4.1 v 26.925 h 4.1 V 15.277 a 6.21,6.21 0 0 1 1.869,-4.856 6.357,6.357 0 0 1 4.358,-1.66 c 3.529,0 5.317,2.136 5.317,6.35 v 11.815 h 4.1 V 13.705 a 8.652,8.652 0 0 0 -2.222,-6.392 7.967,7.967 0 0 0 -5.834,-2.2 z"
       id="path5" />
    <path
       data-name="Tracciato 52"
       d="m 144.186,5.118 a 8.08,8.08 0 0 0 -7.089,4.207 l -0.5,0.913 V 5.449 h -4.1 v 21.478 h 4.1 V 15.278 a 6.207,6.207 0 0 1 1.869,-4.856 6.356,6.356 0 0 1 4.358,-1.66 c 3.528,0 5.316,2.136 5.316,6.35 v 11.815 h 4.1 V 13.706 c 0,-2.781 -0.746,-4.931 -2.216,-6.389 a 7.965,7.965 0 0 0 -5.838,-2.199 z"
       id="path6" />
    <path
       data-name="Tracciato 51"
       d="m 123.822,7.764 a 11.087,11.087 0 0 0 -7.458,-2.646 10.91,10.91 0 0 0 -7.62,2.991 10.492,10.492 0 0 0 -3.224,8.058 10.653,10.653 0 0 0 3.165,8.082 10.815,10.815 0 0 0 7.7,3.009 12.14,12.14 0 0 0 8.9,-3.424 l -2.276,-2.483 a 8.837,8.837 0 0 1 -11.087,0.951 5.3,5.3 0 0 1 -2.3,-4.068 l -0.02,-0.286 h 17.274 V 15.03 a 9.128,9.128 0 0 0 -3.054,-7.266 z m -1.047,7.079 H 109.62 v -0.269 a 5.291,5.291 0 0 1 2.132,-4.413 7.624,7.624 0 0 1 4.735,-1.607 6.645,6.645 0 0 1 4.458,1.554 5.592,5.592 0 0 1 1.831,4.466 z"
       id="path7" />
    <g
       id="g7" />
  </g>
</svg>
