<?xml version="1.0" encoding="UTF-8" standalone="no"?>
<svg
   width="67"
   height="20"
   version="1.1"
   id="svg6"
   sodipodi:docname="Living.svg"
   inkscape:version="1.3 (0e150ed6c4, 2023-07-21)"
   xmlns:inkscape="http://www.inkscape.org/namespaces/inkscape"
   xmlns:sodipodi="http://sodipodi.sourceforge.net/DTD/sodipodi-0.dtd"
   xmlns="http://www.w3.org/2000/svg"
   xmlns:svg="http://www.w3.org/2000/svg">
  <defs
     id="defs6" />
  <sodipodi:namedview
     id="namedview6"
     pagecolor="#ffffff"
     bordercolor="#000000"
     borderopacity="0.25"
     inkscape:showpageshadow="2"
     inkscape:pageopacity="0.0"
     inkscape:pagecheckerboard="0"
     inkscape:deskcolor="#d1d1d1"
     inkscape:zoom="6.8135198"
     inkscape:cx="183.67893"
     inkscape:cy="50.120937"
     inkscape:window-width="3440"
     inkscape:window-height="1369"
     inkscape:window-x="-8"
     inkscape:window-y="1432"
     inkscape:window-maximized="1"
     inkscape:current-layer="svg6" />
  <g
     data-name="Living"
     fill="#ffffff"
     id="g6"
     transform="matrix(0.58005143,0,0,0.58882659,-98.165179,0.14676702)"
     style="display:inline">
    <path
       data-name="Tracciato 58"
       d="m 173.654,0 h -4.1 v 26.926 h 16.632 v -3.865 h -12.532 z"
       id="path1" />
    <path
       data-name="Rettangolo 22"
       d="m 192.166,5.448 h 4.098 v 21.479 h -4.098 z"
       id="path2" />
    <path
       data-name="Tracciato 59"
       d="M 211.719,22.532 204.834,5.449 h -4.222 l 8.64,21.483 h 4.934 l 8.64,-21.479 h -4.224 z"
       id="path3" />
    <path
       data-name="Rettangolo 23"
       d="m 227.172,5.448 h 4.098 v 21.479 h -4.098 z"
       id="path4" />
    <path
       data-name="Tracciato 53"
       d="m 250.199,5.118 a 8.08,8.08 0 0 0 -7.089,4.207 l -0.5,0.912 V 5.449 h -4.096 v 21.478 h 4.1 V 15.278 a 6.21,6.21 0 0 1 1.869,-4.856 6.356,6.356 0 0 1 4.358,-1.66 c 3.528,0 5.316,2.136 5.316,6.35 v 11.815 h 4.1 V 13.706 c 0,-2.781 -0.746,-4.931 -2.216,-6.389 a 7.965,7.965 0 0 0 -5.842,-2.199 z"
       id="path5" />
    <path
       data-name="Tracciato 54"
       d="m 280.963,9.247 -0.481,-0.634 a 8.287,8.287 0 0 0 -6.883,-3.495 9.1,9.1 0 0 0 -6.983,2.976 10.614,10.614 0 0 0 -2.743,7.432 10.614,10.614 0 0 0 2.743,7.432 9.124,9.124 0 0 0 7,2.976 7.981,7.981 0 0 0 4.185,-1.121 7.662,7.662 0 0 0 2.861,-3 l 0.5,-0.949 v 2.066 c 0,2.551 -0.678,4.442 -2.015,5.621 a 7.891,7.891 0 0 1 -5.39,1.763 10.914,10.914 0 0 1 -6.443,-2.321 l -1.911,3.064 a 14.1,14.1 0 0 0 8.624,2.9 11.319,11.319 0 0 0 7.955,-2.839 c 2.044,-1.883 3.079,-4.761 3.079,-8.555 V 5.449 h -4.1 z m -1.83,11.013 a 6.245,6.245 0 0 1 -4.789,1.988 5.906,5.906 0 0 1 -4.714,-2.058 7.264,7.264 0 0 1 -1.74,-4.85 7.505,7.505 0 0 1 1.737,-4.908 5.807,5.807 0 0 1 4.7,-2.125 6.2,6.2 0 0 1 4.792,2.053 7.189,7.189 0 0 1 1.848,4.98 7,7 0 0 1 -1.834,4.92 z"
       id="path6" />
  </g>
</svg>
